<svg xmlns="http://www.w3.org/2000/svg" width="640" height="840" viewBox="0 0 640 840">
  <rect width="640" height="840" fill="#16191f"/>
  <path d="M88 696c84-64 176-96 276-96 76 0 140 18 188 54v102H88z" fill="#202833"/>
  <path d="M144 624c52-98 112-164 180-198 72 36 130 102 174 198-102 38-218 38-354 0z" fill="#3d5d7a"/>
  <path d="M246 188c38-58 106-58 148 0l28 62c20 44 8 100-30 130l-46 36c-16 12-38 12-54 0l-44-36c-38-30-52-86-32-130z" fill="#f2d7bd"/>
  <path d="M206 286c-8-72 22-142 88-168 62-24 132 2 158 70 18 48 16 116-10 170-16-58-46-98-88-118-48 34-96 50-148 46z" fill="#252a35"/>
  <path d="M230 196c72 28 146 24 222-10-28-56-82-92-144-82-46 8-76 38-78 92z" fill="#303a49"/>
  <circle cx="290" cy="288" r="10" fill="#28303c"/>
  <circle cx="360" cy="288" r="10" fill="#28303c"/>
  <path d="M294 342c18 14 44 14 62 0" fill="none" stroke="#b46d61" stroke-width="8" stroke-linecap="round"/>
  <path d="M324 444l-54 58 40 44-58 52 72 48 72-48-58-52 40-44z" fill="#f4c84a"/>
  <path d="M132 556c-28 20-52 50-72 90 34 22 76 30 124 24 12-44 30-82 54-114z" fill="#cf5c5c"/>
  <path d="M508 556c28 20 52 50 72 90-34 22-76 30-124 24-12-44-30-82-54-114z" fill="#4ba3a6"/>
  <path d="M84 194c90-56 184-84 282-84 78 0 142 18 190 54" fill="none" stroke="#f4c84a" stroke-width="8" stroke-linecap="round" opacity=".72"/>
  <path d="M126 248c78-38 164-52 258-42 62 6 112 24 150 54" fill="none" stroke="#4ba3a6" stroke-width="6" stroke-linecap="round" opacity=".62"/>
  <circle cx="94" cy="192" r="12" fill="#f4c84a"/>
  <circle cx="548" cy="164" r="10" fill="#4ba3a6"/>
  <circle cx="128" cy="250" r="8" fill="#cf5c5c"/>
  <circle cx="532" cy="260" r="8" fill="#f2d7bd"/>
</svg>
